inDegrees=no
num_controls=7
num_derivatives=13
num_iterations=92
num_multipliers=7
num_parameters=0
num_slacks=7
num_states=26
objective=0.454603
objective_accelerations=0.044391
objective_balance=0.000788
objective_effort=0.036219
objective_height=0.367091
objective_ligament=0.006114
solver_duration=1045.988484
status=Solve_Succeeded
success=true
DataType=double
version=3
OpenSimVersion=4.5
endheader
time	/jointset/ground_pelvis/pelvis_tilt/value	/jointset/ground_pelvis/pelvis_tx/value	/jointset/ground_pelvis/pelvis_ty/value	/jointset/hip_r/hip_flexion_r/value	/jointset/hip_r/hip_adduction_r/value	/jointset/hip_r/hip_rotation_r/value	/jointset/back/lumbar_extension/value	/jointset/patellofemoral_r/patellar_flexion_r/value	/jointset/knee_r/knee_flexion_r/value	/jointset/knee_r/knee_adduction_r/value	/jointset/knee_r/knee_rotation_r/value	/jointset/ankle_r/ankle_angle_r/value	/jointset/subtalar_r/subtalar_angle_r/value	/jointset/ground_pelvis/pelvis_tilt/speed	/jointset/ground_pelvis/pelvis_tx/speed	/jointset/ground_pelvis/pelvis_ty/speed	/jointset/hip_r/hip_flexion_r/speed	/jointset/hip_r/hip_adduction_r/speed	/jointset/hip_r/hip_rotation_r/speed	/jointset/back/lumbar_extension/speed	/jointset/patellofemoral_r/patellar_flexion_r/speed	/jointset/knee_r/knee_flexion_r/speed	/jointset/knee_r/knee_adduction_r/speed	/jointset/knee_r/knee_rotation_r/speed	/jointset/ankle_r/ankle_angle_r/speed	/jointset/subtalar_r/subtalar_angle_r/speed	/forceset/tau_hip_flexion_r	/forceset/tau_hip_adduction_r	/forceset/tau_hip_rotation_r	/forceset/tau_knee_flexion_r	/forceset/tau_ankle_angle_r	/forceset/tau_subtalar_angle_r	/forceset/tau_lumbar_extension	lambda_cid13_p0	lambda_cid14_p0	lambda_cid14_p1	lambda_cid14_p2	lambda_cid14_p3	lambda_cid14_p4	lambda_cid14_p5	/jointset/ground_pelvis/pelvis_tilt/accel	/jointset/ground_pelvis/pelvis_tx/accel	/jointset/ground_pelvis/pelvis_ty/accel	/jointset/hip_r/hip_flexion_r/accel	/jointset/hip_r/hip_adduction_r/accel	/jointset/hip_r/hip_rotation_r/accel	/jointset/back/lumbar_extension/accel	/jointset/patellofemoral_r/patellar_flexion_r/accel	/jointset/knee_r/knee_flexion_r/accel	/jointset/knee_r/knee_adduction_r/accel	/jointset/knee_r/knee_rotation_r/accel	/jointset/ankle_r/ankle_angle_r/accel	/jointset/subtalar_r/subtalar_angle_r/accel	gamma_cid13_p0	gamma_cid14_p0	gamma_cid14_p1	gamma_cid14_p2	gamma_cid14_p3	gamma_cid14_p4	gamma_cid14_p5
0	-0.007857617901342935	0.1320895121772929	0.9331686298894325	0.1934211968871041	-0.2306388106359086	-0.2376329067284806	-0.2903787966825928	0.2311786273363791	0.2311786273363406	0.1381612826412704	0.1708996893643369	0.089344008118978	0.06076598842889392	0	0	0	0	0	0	0	0	0	0	0	0	0	0.09763281321775925	-0.04802350433972046	0.005045187928508355	-0.2313110015053869	0.1076579146285737	-0.09939620703957572	-0.02065013264965443	-29.8773192862992	-12.16089793190657	-40.17359760009833	0.9744799171919294	3.77497716519127	-609.3156406786194	33.80995655343593	-1.456130069059675	-1.787402497525787	-0.8187234549894026	9.389028767657763	-0.174192585402931	2.916292209214784	-6.312319970714968	10.13240088330451	10.13240088330444	-2.167475477778035	-0.118473988510353	2.832230080443075	0.558133157203821	1.292199985279747e-07	2.74742763647574e-08	-1.113046233031807e-06	4.105821427522588e-07	7.834759671426389e-08	2.042967119848881e-07	-7.030893450393635e-07
0.01	-0.00792508672416594	0.1320022183435207	0.9331288436218534	0.1938762849668478	-0.2306476157028159	-0.2374919133039737	-0.2906955239912739	0.2316747506642943	0.2316747506642017	0.1380555824216891	0.1708957796184241	0.08948322054461284	0.06079315869119224	-0.01346843290581755	-0.01727443291304387	-0.007935565226449566	0.09040627503350986	-0.001928266793572159	0.02747738014244954	-0.06292160039431986	0.09870039598583794	0.09870039598583799	-0.02068971712997529	-0.0001246862169146102	0.02772841444371627	0.005205544534441205	0.09722692082846959	-0.06316053939839515	0.00486656448814515	-0.2355168544816874	0.1121984655965223	-0.08882534176497622	-0.0192335058079373	-29.88194729334352	-10.1783064165727	-35.14395290503693	0.06800921415592255	0.7617675548083249	-610.9781433597204	44.78489407185892	-1.288404449578983	-1.669797943662502	-0.7776789536759612	8.774723384138866	-0.2273157853790657	2.555368085101471	-6.218500871902542	9.66019267419445	9.660192674194338	-1.95230939844627	0.1392161692883866	2.726060436608563	0.4673626738910272	8.766491425984667e-08	7.195368017550434e-09	-7.210631980744868e-07	2.865748871050059e-07	6.229800126112713e-08	3.302287609195087e-08	-4.693732101086492e-07
0.02	-0.008126480785696787	0.1317477133295225	0.9330103605225706	0.1952170950995089	-0.230680737849447	-0.2370977646443888	-0.2916287514635224	0.2331421446955889	0.2331421446955775	0.1377564671173051	0.1709103594319959	0.08989629977672714	0.06086550391330126	-0.02678504774107853	-0.03344223604520805	-0.01573936634076381	0.1771444105846162	-0.004863415948986488	0.05063104701854617	-0.1233000327130635	0.1942541406905352	0.1942541406905359	-0.0386830169735399	0.003697911868993275	0.05477336129835286	0.009034991961963177	0.09682102843922945	-0.0782975744569667	0.004687941048349529	-0.2397227074579391	0.1167390165645573	-0.07825447649023268	-0.01781687896625748	-29.89629747235197	-8.118053292365223	-30.11802700509259	-0.818087065099812	-2.231501652259315	-611.408315736263	55.51216913825316	-1.425766454947904	-1.566076541350276	-0.792370632562318	8.655400871177152	-0.3755690577713686	2.051549555944217	-5.803686355599528	9.503070627076527	9.503070627076578	-1.628192020495892	0.6709828720542272	2.695536562626715	0.2829137358198259	4.610982999171862e-08	-1.308354032965653e-08	-3.29080163117167e-07	1.625676314577531e-07	4.624840580799036e-08	-1.382509598009864e-07	-2.356570751779348e-07
0.03	-0.008460406792911889	0.1313358500679827	0.9328142224917002	0.1974099174884805	-0.2307464666712609	-0.236487578555682	-0.293152742827487	0.2355504339971038	0.2355504339971503	0.1372875311423727	0.1709760221799421	0.09057614265052247	0.06097129747305578	-0.03995277690754118	-0.048866747766701	-0.02348704768790059	0.2610691455672012	-0.008243742250327528	0.07141299604962681	-0.1810818871416953	0.2869701246469201	0.2869701246469187	-0.05503887151104258	0.009271386629758018	0.08106308768823292	0.01213374336435703	0.09123711108294258	-0.07617646272560366	0.005304293547651642	-0.2337352109129205	0.1083988738331421	-0.07593483610858599	-0.01322009551147075	-29.92077539388213	-10.68651360939502	-29.46155451316724	-1.035568073454573	-0.9584949551688197	-611.9231333210035	55.8922692088556	-1.255165469757665	-1.521079029568646	-0.765816406125557	8.208372748241654	-0.3134865065044404	2.092577077264724	-5.702982045166491	9.090813979875206	9.090813979874795	-1.62952069834734	0.4760756304315842	2.575876068934103	0.3248284719222608	6.575072874875202e-08	-2.471208704256374e-08	-4.918569024063292e-07	2.207966150905997e-07	6.983455187357429e-08	-2.184092888969667e-07	-3.402501599232051e-07
0.04	-0.008924587956243282	0.1307716535808226	0.9325406377432923	0.2004314598145508	-0.2308448431740865	-0.2356693610765434	-0.2952420621474732	0.2388728734782815	0.2388728734782707	0.1366569889165835	0.1710925288457007	0.09151491986657172	0.06110837307272969	-0.05283607896446087	-0.06390888116929216	-0.03122870984822613	0.3428883980074584	-0.01139295215922441	0.0922373251037098	-0.2363656239171304	0.3770841766015488	0.3770841766015462	-0.07100426716735633	0.01386669548431251	0.1065602297487348	0.01529139994567822	0.08565319372651491	-0.07405535099429847	0.005920646045874944	-0.2277477143678634	0.1000587311017074	-0.07361519572699902	-0.008623312056777412	-29.95419035491111	-13.18369747455823	-28.80649495907207	-1.236953621518237	0.3203025308212942	-611.3169333212456	56.05765394144741	-1.368881033038869	-1.489600877570368	-0.7911667952000485	8.234304362711679	-0.3293457792825305	2.060025560544666	-5.304062824959978	8.982684226725471	8.982684226725699	-1.550100244258164	0.4753496908122792	2.537019696750645	0.2946947716051762	8.665340035166505e-08	-3.616227578362971e-08	-6.660719875562438e-07	2.827830469560257e-07	9.423792972304937e-08	-2.966889477497108e-07	-4.518186924968462e-07
0.05	-0.00951668412432017	0.1300593690975293	0.932189403847565	0.2042604773939034	-0.2309745334350243	-0.2346442925330934	-0.2978710477684431	0.2430835503898348	0.2430835503898574	0.1358708249225893	0.1712521639497833	0.09270483039538861	0.06127617240604186	-0.06554143640892625	-0.07844076801889792	-0.03903503391658057	0.4224836664831174	-0.01458728848676193	0.1126367708788025	-0.2889948323108564	0.464599389790901	0.464599389790901	-0.08598541959931878	0.01807598848988345	0.1313001209038126	0.01818342227257256	0.08086954042418801	-0.06964375495371625	0.006307142202317919	-0.2249614217939245	0.09716298230184182	-0.07421563883575763	-0.004470360191048986	-29.99502144075829	-14.09341671402835	-29.25852984266531	-1.128361646129377	0.24289825533318	-610.9677820973989	54.0493850229978	-1.215098563235418	-1.418876424612517	-0.7779698758453324	7.757420915861996	-0.3208395079466654	2.009029361472576	-5.176849651101197	8.568149977117699	8.568149977117752	-1.435732891790275	0.3961298557524	2.424219198928874	0.2736287157621526	6.757394085641502e-08	-4.711736437553916e-08	-5.029116346496744e-07	1.830670517791077e-07	8.755561858508205e-08	-3.87982991596246e-07	-3.139413476154174e-07
